<?xml version="1.0" encoding="utf-8"?>
<svg xmlns="http://www.w3.org/2000/svg" fill="none" height="20" viewBox="0 0 20 20" width="20">
  <path d="M12.454 15.49l-1.42-.372V8.342l1.52-.385c.833-.212 1.533-.384 1.566-.378.027 0 .047 1.863.047 4.144v4.144l-.147-.007c-.086 0-.793-.171-1.566-.37z" fill="#00C8D2"/>
  <path d="M5.833 13.785c0-2.28.02-4.15.054-4.15.027-.007.727.167 1.567.378l1.513.385-.014 3.375-.02 3.374-1.36.351c-.746.192-1.446.371-1.546.391l-.194.047v-4.151z" fill="#3C8CFF"/>
  <path d="M16.034 10.398c0-7.526.006-7.93.12-7.896.06.02.653.172 1.313.338.66.172 1.313.337 1.453.37l.247.067-.013 7.134-.02 7.14-1.354.345c-.74.191-1.44.364-1.546.392l-.2.045v-7.935z" fill="#78E6DC"/>
  <path d="M.833 10.424c0-3.898.02-7.088.054-7.088.026 0 .726.173 1.56.379l1.52.384v6.318c0 3.467-.014 6.312-.027 6.312-.02 0-.727.18-1.567.392l-1.54.39v-7.087z" fill="#325AB4"/>
</svg>