<svg xmlns="http://www.w3.org/2000/svg" height="20" viewBox="0 0 20 20" width="20">
  <path d="M9.167 1c1.158.017 2.243.457 3.132 1.334.131.13.246.16.422.135 2.552-.355 4.791 1.235 5.26 3.735a4.134 4.134 0 0 1-.106 1.953c-.048.156-.017.255.086.38 2.112 2.554.848 6.419-2.379 7.26-.184.047-.265.13-.329.295-1.2 3.075-5.227 3.902-7.575 1.556-.117-.115-.218-.14-.377-.118-2.588.36-4.83-1.232-5.293-3.76a4.069 4.069 0 0 1 .114-1.928c.047-.157.017-.256-.084-.38-2.12-2.557-.834-6.45 2.405-7.269.161-.04.237-.11.295-.258C5.435 2.136 7.128.992 9.168 1zm2.806 11.076c-1.464.833-2.881 1.634-4.287 2.448-.318.184-.588.179-.906-.006-1.102-.643-2.212-1.268-3.322-1.895-.08-.044-.148-.134-.276-.096-.15 1.337.273 2.45 1.386 3.24 1.121.795 2.354.894 3.576.256 1.25-.652 2.457-1.384 3.681-2.082.07-.039.148-.069.148-.17v-1.695zm-.78-9.101c-.029-.096-.101-.124-.157-.162-1.116-.746-2.304-.864-3.509-.278-1.216.594-1.863 1.609-1.9 2.948-.035 1.362-.005 2.723-.013 4.085 0 .145.05.222.176.288.41.223.814.46 1.219.688.05.028.094.088.178.036 0-1.612.006-3.232-.003-4.852-.003-.333.126-.547.419-.71.847-.47 1.687-.954 2.53-1.435.354-.201.708-.407 1.06-.608zm1.614 6.378v.352c0 1.53-.003 3.061.003 4.59.003.311-.115.523-.39.672-.388.209-.768.431-1.15.649L8.721 17.07c.078.027.117.033.145.055 1.035.745 2.164.916 3.35.448 1.185-.468 1.95-1.356 2.094-2.607.176-1.53.037-3.075.064-4.613.003-.082-.036-.129-.103-.168-.474-.27-.945-.539-1.464-.833zm-1.972-2.08c.114.07.193.114.268.158 1.35.77 2.697 1.543 4.052 2.304.293.165.419.383.416.713-.008 1.273-.003 2.547-.003 3.82 0 .094.009.184.014.297.07-.025.112-.038.154-.055 1.213-.555 1.932-1.488 2.047-2.797.12-1.356-.43-2.445-1.61-3.163-1.188-.723-2.415-1.383-3.623-2.077-.106-.06-.184-.068-.295-.005-.458.264-.92.52-1.42.806zm-6.41-1.806c-.125-.017-.2.041-.278.08-1.155.572-1.83 1.496-1.936 2.76-.108 1.313.408 2.391 1.537 3.095 1.21.754 2.474 1.428 3.712 2.137.073.041.14.077.223.028l1.468-.84c-.106-.062-.179-.11-.254-.153-1.35-.77-2.697-1.543-4.053-2.302-.304-.17-.427-.394-.424-.735.011-1.35.006-2.703.006-4.07zm3.602 2.442c.117-.06.195-.099.27-.143 1.336-.759 2.675-1.513 4.002-2.285.318-.185.589-.19.907-.006 1.118.652 2.245 1.284 3.37 1.923.066.038.122.11.236.077.148-1.31-.254-2.415-1.339-3.207-1.126-.826-2.373-.938-3.617-.292-1.25.652-2.457 1.383-3.684 2.08-.07.038-.145.07-.145.173v1.68zm3.946 2.165c0-.377-.008-.69.003-1.001.005-.143-.042-.226-.17-.295a75.79 75.79 0 0 1-1.663-.946c-.106-.063-.184-.063-.292-.003a75.79 75.79 0 0 1-1.663.947c-.128.071-.167.154-.167.297.008.613.011 1.229 0 1.842-.003.168.059.256.204.33.265.135.516.292.775.438.329.184.658.517.984.514.34-.003.678-.327 1.013-.514.32-.182.742-.303.923-.575.187-.289.034-.729.053-1.034z" fill="#171717" fill-rule="nonzero"/>
</svg>
