<svg width="1400" height="787" viewBox="0 0 1400 787" fill="none" xmlns="http://www.w3.org/2000/svg">
  <rect width="1400" height="787" fill="#fbf6ea"/>
  <rect x="92" y="154" width="250" height="340" rx="24" fill="#fffdf7" stroke="#111827" stroke-width="6"/>
  <rect x="123" y="199" width="188" height="170" rx="16" fill="#e8f4fb" stroke="#111827" stroke-width="5"/>
  <path d="M132 339c41-46 71-60 102-33 18 16 31 32 77-8v71H123v-18c4-1 7-4 9-12Z" fill="#83bfcd" stroke="#111827" stroke-width="4"/>
  <circle cx="169" cy="246" r="23" fill="#f5d47b" stroke="#111827" stroke-width="4"/>
  <path d="M130 421h137M130 451h95" stroke="#111827" stroke-width="6" stroke-linecap="round"/>
  <text x="111" y="562" fill="#111827" font-family="Arial, sans-serif" font-size="31" font-weight="700">1. Clean image</text>
  <rect x="450" y="154" width="250" height="340" rx="24" fill="#fffdf7" stroke="#111827" stroke-width="6"/>
  <path d="M490 226h169M490 270h125M490 314h150M490 358h102" stroke="#111827" stroke-width="7" stroke-linecap="round"/>
  <path d="M501 425h86M606 425h44" stroke="#5b8fb9" stroke-width="7" stroke-linecap="round"/>
  <text x="463" y="562" fill="#111827" font-family="Arial, sans-serif" font-size="31" font-weight="700">2. Motion prompt</text>
  <rect x="808" y="154" width="250" height="340" rx="24" fill="#fffdf7" stroke="#111827" stroke-width="6"/>
  <rect x="855" y="216" width="156" height="120" rx="18" fill="#dcecf3" stroke="#111827" stroke-width="5"/>
  <path d="M885 376c34-28 58-27 91 0" stroke="#0f766e" stroke-width="8" stroke-linecap="round"/>
  <path d="M961 351l34 28-34 28" stroke="#0f766e" stroke-width="8" stroke-linecap="round" stroke-linejoin="round"/>
  <text x="832" y="562" fill="#111827" font-family="Arial, sans-serif" font-size="31" font-weight="700">3. Generate</text>
  <rect x="1138" y="154" width="186" height="340" rx="24" fill="#fffdf7" stroke="#111827" stroke-width="6"/>
  <rect x="1171" y="199" width="121" height="214" rx="16" fill="#111827" stroke="#111827" stroke-width="5"/>
  <path d="M1200 319c29-26 53-36 77-15v109h-106v-63c10-3 19-12 29-31Z" fill="#80c4d1"/>
  <circle cx="1220" cy="251" r="19" fill="#f5d47b"/>
  <path d="M1204 451h56" stroke="#111827" stroke-width="6" stroke-linecap="round"/>
  <text x="1133" y="562" fill="#111827" font-family="Arial, sans-serif" font-size="31" font-weight="700">4. Review</text>
  <path d="M363 320h65M397 286l34 34-34 34M721 320h65M755 286l34 34-34 34M1078 320h39M1098 294l27 27-27 27" stroke="#0f766e" stroke-width="8" stroke-linecap="round" stroke-linejoin="round"/>
  <path d="M167 96c237-34 473-33 704-9 157 16 298 13 430 33" stroke="#111827" stroke-width="5" stroke-linecap="round" opacity=".12"/>
</svg>
