<svg width="1400" height="787" viewBox="0 0 1400 787" fill="none" xmlns="http://www.w3.org/2000/svg">
  <rect width="1400" height="787" fill="#fbf6ea"/>
  <rect x="145" y="110" width="1110" height="555" rx="32" fill="#fffdf7" stroke="#111827" stroke-width="7"/>
  <rect x="195" y="168" width="470" height="405" rx="24" fill="#eaf4fb" stroke="#111827" stroke-width="6"/>
  <path d="M255 446c76-90 139-130 202-83 29 22 52 55 144 0v210H195v-88c21-6 41-17 60-39Z" fill="#86c7d5" stroke="#111827" stroke-width="5" stroke-linejoin="round"/>
  <circle cx="300" cy="265" r="39" fill="#f6d57a" stroke="#111827" stroke-width="5"/>
  <rect x="736" y="168" width="440" height="76" rx="18" fill="#f7fbfd" stroke="#111827" stroke-width="5"/>
  <rect x="736" y="284" width="440" height="76" rx="18" fill="#f7fbfd" stroke="#111827" stroke-width="5"/>
  <rect x="736" y="400" width="440" height="76" rx="18" fill="#f7fbfd" stroke="#111827" stroke-width="5"/>
  <rect x="736" y="516" width="440" height="76" rx="18" fill="#f7fbfd" stroke="#111827" stroke-width="5"/>
  <text x="766" y="216" fill="#111827" font-family="Arial, sans-serif" font-size="29" font-weight="700">Subject stays consistent</text>
  <text x="766" y="332" fill="#111827" font-family="Arial, sans-serif" font-size="29" font-weight="700">Slow camera push-in</text>
  <text x="766" y="448" fill="#111827" font-family="Arial, sans-serif" font-size="29" font-weight="700">Gentle background motion</text>
  <text x="766" y="564" fill="#111827" font-family="Arial, sans-serif" font-size="29" font-weight="700">No text or logo drift</text>
  <path d="M684 370c34-16 34-16 68 0" stroke="#0f766e" stroke-width="8" stroke-linecap="round"/>
  <path d="M727 343l31 30-33 28" stroke="#0f766e" stroke-width="8" stroke-linecap="round" stroke-linejoin="round"/>
  <path d="M1074 112c20 17 31 37 33 61M1115 105c29 23 46 52 51 88" stroke="#5b8fb9" stroke-width="6" stroke-linecap="round"/>
  <path d="M270 112c204-34 404-35 600-16" stroke="#111827" stroke-width="5" stroke-linecap="round" opacity=".12"/>
</svg>
