<svg width="1400" height="787" viewBox="0 0 1400 787" fill="none" xmlns="http://www.w3.org/2000/svg">
  <rect width="1400" height="787" fill="#fbf6ea"/>
  <rect x="135" y="104" width="535" height="560" rx="30" fill="#fffdf7" stroke="#111827" stroke-width="7"/>
  <text x="190" y="178" fill="#111827" font-family="Arial, sans-serif" font-size="39" font-weight="700">Clip review</text>
  <rect x="193" y="228" width="52" height="52" rx="10" fill="#eaf4fb" stroke="#111827" stroke-width="5"/>
  <path d="M205 255l15 15 32-38" stroke="#0f766e" stroke-width="7" stroke-linecap="round" stroke-linejoin="round"/>
  <path d="M275 255h290" stroke="#111827" stroke-width="7" stroke-linecap="round"/>
  <rect x="193" y="318" width="52" height="52" rx="10" fill="#eaf4fb" stroke="#111827" stroke-width="5"/>
  <path d="M205 345l15 15 32-38" stroke="#0f766e" stroke-width="7" stroke-linecap="round" stroke-linejoin="round"/>
  <path d="M275 345h245" stroke="#111827" stroke-width="7" stroke-linecap="round"/>
  <rect x="193" y="408" width="52" height="52" rx="10" fill="#eaf4fb" stroke="#111827" stroke-width="5"/>
  <path d="M205 435l15 15 32-38" stroke="#0f766e" stroke-width="7" stroke-linecap="round" stroke-linejoin="round"/>
  <path d="M275 435h310" stroke="#111827" stroke-width="7" stroke-linecap="round"/>
  <rect x="193" y="498" width="52" height="52" rx="10" fill="#eaf4fb" stroke="#111827" stroke-width="5"/>
  <path d="M205 525l15 15 32-38" stroke="#0f766e" stroke-width="7" stroke-linecap="round" stroke-linejoin="round"/>
  <path d="M275 525h270" stroke="#111827" stroke-width="7" stroke-linecap="round"/>
  <rect x="776" y="151" width="465" height="380" rx="30" fill="#101827" stroke="#111827" stroke-width="7"/>
  <path d="M846 408c68-75 124-109 179-67 28 21 47 52 145-8v198H776v-76c23-4 47-17 70-47Z" fill="#86c7d5"/>
  <circle cx="895" cy="253" r="39" fill="#f6d57a"/>
  <path d="M876 600c70 28 165 33 263 2" stroke="#0f766e" stroke-width="9" stroke-linecap="round"/>
  <path d="M1120 570l43 31-45 32" stroke="#0f766e" stroke-width="9" stroke-linecap="round" stroke-linejoin="round"/>
  <path d="M982 106c98-10 190-4 281 16" stroke="#111827" stroke-width="5" stroke-linecap="round" opacity=".12"/>
  <path d="M1189 208c27 22 41 50 43 84M1234 194c42 36 62 79 62 132" stroke="#5b8fb9" stroke-width="6" stroke-linecap="round"/>
</svg>
