<svg width="1600" height="900" viewBox="0 0 1600 900" fill="none" xmlns="http://www.w3.org/2000/svg">
  <rect width="1600" height="900" fill="#fbf6ea"/>
  <path d="M124 112c211-34 414-30 610-10 238 24 480 6 743 37" stroke="#111827" stroke-width="5" stroke-linecap="round" opacity=".14"/>
  <rect x="175" y="164" width="520" height="560" rx="30" fill="#fffdf7" stroke="#111827" stroke-width="7"/>
  <rect x="225" y="224" width="420" height="378" rx="22" fill="#eaf4fb" stroke="#111827" stroke-width="6"/>
  <path d="M286 505c76-86 139-128 200-84 29 21 49 58 106 20l53-35v196H225v-74c21-5 43-12 61-23Z" fill="#8cc7d8" stroke="#111827" stroke-width="5" stroke-linejoin="round"/>
  <circle cx="332" cy="318" r="43" fill="#f6d57a" stroke="#111827" stroke-width="5"/>
  <path d="M260 658h290M260 690h178" stroke="#111827" stroke-width="7" stroke-linecap="round"/>
  <rect x="882" y="164" width="548" height="560" rx="30" fill="#fffdf7" stroke="#111827" stroke-width="7"/>
  <rect x="930" y="222" width="452" height="332" rx="22" fill="#101827" stroke="#111827" stroke-width="6"/>
  <path d="M1010 405c72-81 132-120 190-79 28 20 47 55 101 19l51-33v242H930v-99c20-5 42-11 80-50Z" fill="#7bbfce"/>
  <circle cx="1052" cy="309" r="39" fill="#f4c96a"/>
  <path d="M1123 629h68M1157 595v68" stroke="#0f766e" stroke-width="8" stroke-linecap="round"/>
  <rect x="986" y="650" width="340" height="22" rx="11" fill="#dce7ee" stroke="#111827" stroke-width="5"/>
  <rect x="986" y="650" width="166" height="22" rx="11" fill="#5fb7c7" stroke="#111827" stroke-width="5"/>
  <path d="M748 398c54-24 77-23 135 1" stroke="#0f766e" stroke-width="9" stroke-linecap="round"/>
  <path d="M851 354l46 46-48 41" stroke="#0f766e" stroke-width="9" stroke-linecap="round" stroke-linejoin="round"/>
  <path d="M782 497c43 28 72 33 121 16" stroke="#0f766e" stroke-width="7" stroke-linecap="round"/>
  <text x="240" y="128" fill="#111827" font-family="Arial, sans-serif" font-size="44" font-weight="700">Reference image</text>
  <text x="980" y="128" fill="#111827" font-family="Arial, sans-serif" font-size="44" font-weight="700">Gemini Omni clip</text>
  <path d="M1274 258c26 18 39 42 40 70M1302 246c38 28 58 65 59 111" stroke="#5b8fb9" stroke-width="6" stroke-linecap="round"/>
</svg>
